<mxfile host="app.diagrams.net" modified="2023-12-06T09:58:33.119Z" agent="Mozilla/5.0 (Windows NT 10.0; Win64; x64) AppleWebKit/537.36 (KHTML, like Gecko) Chrome/119.0.0.0 Safari/537.36" version="21.6.9" etag="8H9LkKILty0qxS_3npA6" type="github">
  <diagram name="Страница — 1" id="GrB1iglFjsb_PptkNUyo">
    <mxGraphModel>
      <root>
        <mxCell id="0" />
        <mxCell id="1" parent="0" />
      </root>
    </mxGraphModel>
  </diagram>
</mxfile>
